<svg xmlns="http://www.w3.org/2000/svg" xmlns:xlink="http://www.w3.org/1999/xlink" viewBox="0 0 570 572.61">
    <defs>
        <style>
            .cls-1 {
                fill: #f4c5a2;
            }

            .cls-2 {
                clip-path: url(#clip-path);
            }

            .cls-3 {
                fill: #ef7443;
            }

            .cls-4 {
                fill: #c44d23;
            }

            .cls-5 {
                fill: #9e3207;
            }

            .cls-6 {
                fill: #391b1b;
            }

            .cls-7 {
                fill: #0f0707;
            }

            .cls-8 {
                fill: #ae5552;
            }

            .cls-9 {
                fill: #753735;
            }

            .cls-10,
            .cls-13 {
                fill: #7c2f2f;
            }

            .cls-10 {
                opacity: 0.6;
            }

            .cls-11 {
                fill: #2c1515;
            }

            .cls-12 {
                fill: #fff;
            }
        </style>
        <clipPath id="clip-path">
            <circle class="cls-1" cx="285" cy="285" r="285" />
        </clipPath>
    </defs>
    <g id="Layer_2" data-name="Layer 2">
        <g id="OBEJCTS">
            <circle class="cls-1" cx="285" cy="285" r="285" />
            <g class="cls-2">
                <path class="cls-3"
                    d="M194.24,420.27c-6.81.27-55.81,2.32-79,10.83a35.31,35.31,0,0,0-12.81,7.56c-3.56,3.4-6.75,8-11.61,24a248.29,248.29,0,0,0-6.58,26.92c15.31,14.76,89.09,82.67,204,83,105.36.31,175.53-56.4,193.27-71.65-1.88-9.16-4.32-20.81-7.27-34.35-3.39-15.55-4.67-20.12-8.5-25-6.69-8.51-17.09-10.57-27-12.34-16.8-3-39.77-6.44-68.17-9Z" />
                <path class="cls-4"
                    d="M142.08,534.11a278.7,278.7,0,0,0-11.82-46.17,277.85,277.85,0,0,0-14.34-33.67,187.93,187.93,0,0,1,14.87,27.21,189.84,189.84,0,0,1,15,54.75Z" />
                <path class="cls-4"
                    d="M421,542.67a194.75,194.75,0,0,1,9-48.07,216.7,216.7,0,0,1,17.75-40.34h0c-6.15,14.44-10.17,29.7-15.37,44.51-3.26,9.25-6.65,23-6.63,41.82Z" />
                <path class="cls-5"
                    d="M208.76,417.6l-14.52,2.67c21.5,10.23,73.2,30.93,133.52,16.33a181.72,181.72,0,0,0,42.8-16.33l-15.3-2.67a219.29,219.29,0,0,1-30,8C277.37,434.81,235.82,426.26,208.76,417.6Z" />
                <path class="cls-6"
                    d="M249.26,387.6c-4.55-5-8.57-6.36-11.34-6.66-7-.77-10.41,4.57-20.44,6.66-5.14,1.08-9,.66-14.89,0-12.9-1.41-16.71-5.43-28.32-7.4a65.9,65.9,0,0,0-19.68-.26c3.54-10,2.44-16.31.63-20.35-2.13-4.77-5.74-7.45-6-13.32a18.07,18.07,0,0,1,2.33-9c4.46-9,10.62-8.51,15-16,4.48-7.66,2.81-16.37,2.5-18-1.43-7.48-5-7.88-8.32-18-1.48-4.44-3.14-9.44-2.51-15.71.28-2.77,1-5.9,8.33-19.66,2.82-5.3,5.27-9.65,7-12.67-4.72-4.85-16.2-18-18.33-37.67-2.42-22.25,8.57-39,13.71-46.45,14.79-21.39,25.89-16.85,53.45-41.68C246.66,89.63,246,79,265.09,71.23c6.48-2.63,27.5-11.34,43.92,0,12.92,8.88,18.74,27.24,14.75,46.42,2.84-4.22,10.53-14.38,22-15.5,18.95-1.84,33.25,22.43,35.5,26.4,17.56,31-4.23,52.12,14,74.1,7.6,9.18,19.87,15.72,22.47,31.67a38.79,38.79,0,0,1,.19,10.33c-2.51,22.6-22.66,26.18-23.77,41.49-1.28,17.68,24.73,25.2,22.44,46.18-.47,4.3-2,8.4-1.67,16.33a56.47,56.47,0,0,0,4.34,19,170.72,170.72,0,0,0-21.34-2.33c-5-.22-7.47-.32-9.33.33-8.26,2.92-8.3,11.72-17.19,16.68A23.92,23.92,0,0,1,360.69,385c-14.47,1-20.68-9-32.1-6.43a20.32,20.32,0,0,0-8.33,4.11Z" />
                <path class="cls-7"
                    d="M202.63,218.73a122.32,122.32,0,0,1,6.13,17l1.54-4.35A86.24,86.24,0,0,0,203,214.6c-3.93-6.89-8.39-12.48-8.75-12.25S198.26,209,202.63,218.73Z" />
                <path class="cls-7"
                    d="M358.18,218.05a35.81,35.81,0,0,1,7.08-16.2c1.87-2.32,4.57-5,4.87-4.75s-2.13,3.55-4,6.63a55.71,55.71,0,0,0-6.87,18.1Z" />
                <path class="cls-7"
                    d="M378,376.39c.41-23.83-5.11-39.66-10.56-49.95-2.45-4.64-4.2-6.85-5.83-12-7.13-22.58,6.29-44.21,6.67-44.09s-10.46,18.1-4.84,39.25c1.69,6.35,3.86,9.22,6.79,15.11,4.89,9.82,10.31,24.81,11.41,46.49Z" />
                <path class="cls-7"
                    d="M347,382.71a64.4,64.4,0,0,0,4.11-21.12c.24-12.13-3.18-21.28-2.89-21.35s3.93,8.73,4.54,20.11a64.46,64.46,0,0,1-3.13,23.29Z" />
                <path class="cls-7"
                    d="M191.77,385.39c-.5-24,5.1-38.24,10.58-46.95,1.77-2.82,4.3-6.29,5.83-12,4.47-16.69-5.06-32.12-5.42-32s6.76,12.19,3.59,27.16c-1.57,7.39-4.92,12.13-6.79,15.11-5.56,8.85-11.32,23.28-11.38,47.48Z" />
                <path class="cls-7"
                    d="M221.76,386.35c-4.7-9.66-4.37-16.35-3.1-20.76,1.18-4.07,2.87-5.12,4.47-10.61,2.66-9.08,1.15-16.75.88-16.75s.62,6.89-2.38,15.62c-1.58,4.6-3,6.07-4.18,8.9-2,4.7-3.06,12.24,1.91,24.4Z" />
                <path class="cls-8"
                    d="M250.38,334.71c.53,6.47,1.06,15.74.92,26.9-.18,13.62-.26,20.43-2,26-5.81,18.18-28.68,26.63-40.5,30,21.74,7.79,58.83,17.44,103.5,11a207.07,207.07,0,0,0,43-11c-5.57-.54-20.22-2.76-30-14.5-5.94-7.12-7.44-14.59-9.5-25.5a137.27,137.27,0,0,1-1.17-42.89Z" />
                <path class="cls-9" d="M250.38,334.71a80,80,0,0,0,65.38,42.89l-1.17-42.89Z" />
                <path class="cls-8"
                    d="M359.26,221.82c-.36,1.28-.72,2.57-1.07,3.85a379.23,379.23,0,0,0-10.26,49.93c-2.73,20.14-2.35,30-10.59,41.21-7.11,9.66-16.55,14.69-26.75,20.12-9.8,5.24-18.22,9.59-29.33,9-1.85-.09-6.89-.49-20-6.33-18.81-8.36-28.21-12.56-34.67-21-6.57-8.6-5.38-14.92-9.07-39.5-1.49-10-3.86-23.42-7.77-39.42-.32-1.3-.65-2.64-1-4,2.37-7.51,6.51-16.11,14.17-23.09,9-8.2,14.59-6.6,22.09-14.95,9.76-10.86,6.11-20,13.91-23.72,7.08-3.36,11.18,3.69,25.66,3,4.82-.21,15.13-.7,22.34-8.33,6.72-7.1,7-16.43,6.95-19.5a147.58,147.58,0,0,1,45.38,72.72Z" />
                <path class="cls-10"
                    d="M359.26,221.82c-.36,1.28-.72,2.57-1.07,3.85-7.75-15.33-13.16-26.5-17.1-34.86a76.8,76.8,0,0,0-9.83-16.46,71.86,71.86,0,0,0-13.21-12.75,40.11,40.11,0,0,1-17.54,17c-1.93.92-13.45,6.19-26.5,3-7-1.7-10.09-4.78-14-3-4.13,1.89-4.17,6.9-6.5,12.75-4.7,11.77-13.19,13.07-26.24,25.75a105.74,105.74,0,0,0-17.52,22.58c-.32-1.3-.65-2.64-1-4,2.37-7.51,6.51-16.11,14.17-23.09,9-8.2,14.59-6.6,22.09-14.95,9.76-10.86,6.11-20,13.91-23.72,7.08-3.36,11.18,3.69,25.66,3,4.82-.21,15.13-.7,22.34-8.33,6.72-7.1,7-16.43,6.95-19.5a147.58,147.58,0,0,1,45.38,72.72Z" />
                <path class="cls-11"
                    d="M295.7,209.55a3.62,3.62,0,0,0-.94,5.3,3.57,3.57,0,0,0,4.83.09c6.67-5.76,16.81-12.52,28.33-11.34,12.22,1.26,20.52,10.86,21.21,10s-6.84-12.11-18.87-15.33C313.65,193.83,298.21,207.3,295.7,209.55Z" />
                <path class="cls-11"
                    d="M268.79,209.55a3.62,3.62,0,0,1,.94,5.3,3.57,3.57,0,0,1-4.83.09c-6.67-5.76-16.8-12.52-28.33-11.34-12.22,1.26-20.52,10.86-21.21,10s6.85-12.11,18.87-15.33C250.85,193.83,266.28,207.3,268.79,209.55Z" />
                <path class="cls-11"
                    d="M227.51,240.85a20.28,20.28,0,0,1,18.75-19c10.59-.58,20.23,7.83,21,19a20.77,20.77,0,0,0-39.75,0Z" />
                <path class="cls-11" d="M229.18,234c-7.71-3.24-11.3-4.58-11.42-4.31s3.25,2.17,10.77,6Z" />
                <path class="cls-11"
                    d="M298.17,240.85a20.28,20.28,0,0,1,18.75-19c10.59-.58,20.23,7.83,21,19a20.77,20.77,0,0,0-39.75,0Z" />
                <path class="cls-11" d="M335.52,234c7.7-3.24,11.3-4.58,11.42-4.31s-3.25,2.17-10.77,6Z" />
                <ellipse class="cls-11" cx="250.38" cy="244.9" rx="6.38" ry="9.21" />
                <path class="cls-12" d="M253.76,241a1.34,1.34,0,1,1-1.34-1.33A1.33,1.33,0,0,1,253.76,241Z" />
                <ellipse class="cls-11" cx="313.88" cy="244.9" rx="6.38" ry="9.21" />
                <path class="cls-12" d="M317.26,241a1.34,1.34,0,1,1-1.34-1.33A1.33,1.33,0,0,1,317.26,241Z" />
                <path class="cls-13"
                    d="M280.82,258.82Q274.43,271,268,283.19a1.32,1.32,0,0,0,.44,1.73,24.41,24.41,0,0,0,27,.06,1.34,1.34,0,0,0,.45-1.74l-12.7-24.41A1.34,1.34,0,0,0,280.82,258.82Z" />
                <path class="cls-13"
                    d="M300.26,294.1a27,27,0,0,0,8.25-8.5,2.1,2.1,0,1,1,2.91,2.84,30.46,30.46,0,0,1-10.83,9.66c-17.11,8.88-37.51-3.19-37.33-3.87S284.92,303.94,300.26,294.1Z" />
            </g>
        </g>
    </g>
</svg>