<svg xmlns="http://www.w3.org/2000/svg" xmlns:xlink="http://www.w3.org/1999/xlink" viewBox="0 0 570 574.27">
    <defs>
        <style>
            .cls-1 {
                fill: none;
            }

            .cls-2 {
                fill: #b8d392;
            }

            .cls-3 {
                clip-path: url(#clip-path);
            }

            .cls-4 {
                fill: #693b2f;
            }

            .cls-5 {
                fill: #231010;
            }

            .cls-12,
            .cls-5 {
                opacity: 0.8;
            }

            .cls-6 {
                fill: #fff;
            }

            .cls-7 {
                fill: #ef7443;
            }

            .cls-8 {
                fill: #d6d3bf;
            }

            .cls-9 {
                fill: #e9eadf;
            }

            .cls-10 {
                fill: #bab9a8;
            }

            .cls-11 {
                fill: #f4b694;
            }

            .cls-12,
            .cls-13,
            .cls-14 {
                fill: #c97b5c;
            }

            .cls-13 {
                opacity: 0.7;
            }

            .cls-15 {
                fill: #613125;
            }

            .cls-16 {
                fill: #40211f;
            }

            .cls-17 {
                fill: #2c1515;
            }
        </style>
        <clipPath id="clip-path">
            <circle class="cls-1" cx="286" cy="285" r="285" />
        </clipPath>
    </defs>
    <g id="Layer_2" data-name="Layer 2">
        <g id="OBEJCTS">
            <circle class="cls-2" cx="285" cy="285" r="285" />
            <g class="cls-3">
                <path class="cls-4"
                    d="M154.24,402a53.07,53.07,0,0,1-8.62-19.41c-3.31-15.57,2-27.87,16-61.67,2.69-6.46,8.44-20.31,16.27-39.33a71,71,0,0,1-9.62-17c-8.05-20.3-3.24-36.39,10.69-88.38,13.19-49.25,15.5-59.56,27.33-72.67,5.56-6.15,15.85-17.26,33.34-21.88,18.71-4.93,34.58.49,40.71,3,8.27-3.23,22.19-7.15,37.95-3.75,26.22,5.65,40.25,27.83,51.33,45.33,8.35,13.19,14.39,42.05,26.48,99.77,3.36,16.1,7.23,35.89-3.81,47.56a26.55,26.55,0,0,1-10.41,6.62,252.59,252.59,0,0,0,15.74,43.38c9.75,20.67,18.5,31.74,19.81,50.79a72.64,72.64,0,0,1-2.74,25Z" />
                <path class="cls-5"
                    d="M211,248.93l-12.13,18.53c-1.6,2.43-3.5,5.32-2.54,8,.4,1.12,1.45,2.57,7.5,4.83a63.74,63.74,0,0,0,12.85,3.33Q213.84,266.27,211,248.93Z" />
                <path class="cls-5"
                    d="M350.87,248.93c4.41,6.72,8.21,12.55,12.14,18.53,1.6,2.43,3.5,5.32,2.53,8-.3.83-1.24,2.71-7.5,4.83a46.86,46.86,0,0,1-15,2.42Q346.93,265.82,350.87,248.93Z" />
                <path class="cls-6"
                    d="M222.33,398.94a462.12,462.12,0,0,0,39.5,175.33H300.9a345.36,345.36,0,0,0,36.24-125.5,336.85,336.85,0,0,0,.76-48.5Z" />
                <path class="cls-7" d="M337.9,379.1l-113,3.17.75,18a91.06,91.06,0,0,0,112.24,0Z" />
                <path class="cls-8"
                    d="M189.12,389.21c-24.24,8.27-43.27,16-56.79,21.89-7.51,3.27-19.25,8.57-21,18-.66,3.6.55,5.45,1.5,12,1.08,7.47.59,12.8-.4,23.47-1.83,19.67-6.43,39.94-8.1,47a230.09,230.09,0,0,0,91.33,48.67l26-27.33L229,476.69Z" />
                <path class="cls-9"
                    d="M224.83,379.1a603,603,0,0,0,37,195.17,229.53,229.53,0,0,1-66.17-14l-20-46.67,43.09-22-47.09-8.66,17.46-93.73Z" />
                <path class="cls-10"
                    d="M148,541.77c4.11-51.39,5.51-62.36,6-62.33s.24,9-.17,27c-.35,15.59-.78,28.51-1.12,37.57Z" />
                <path class="cls-10"
                    d="M112.4,425.82q28.46,36,28.93,35.62t-27.6-37.9C113.28,424.3,112.84,425.06,112.4,425.82Z" />
                <path class="cls-8"
                    d="M373.61,389.21c24.24,8.27,43.26,16,56.79,21.89,7.5,3.27,19.25,8.57,21,18,.66,3.6-.56,5.45-1.5,12-1.08,7.47-.59,12.8.4,23.47,1.82,19.67,6.42,39.94,8.1,47a230,230,0,0,1-91.34,48.67l-26-27.33-7.33-56.25Z" />
                <path class="cls-9"
                    d="M337.9,379.1A603.5,603.5,0,0,1,332,450.79,605.42,605.42,0,0,1,300.9,574.27a229.56,229.56,0,0,0,66.16-14q10-23.32,20-46.67L344,491.6l47.08-8.66q-8.73-46.86-17.45-93.73Z" />
                <path class="cls-10"
                    d="M414.73,541.77c-4.12-51.39-5.51-62.36-6-62.33s-.24,9,.17,27C409.25,522,409.68,535,410,544Z" />
                <path class="cls-10" d="M450.33,425.82q-28.45,36-28.93,35.62t27.6-37.9Z" />
                <path class="cls-11"
                    d="M338,379.1c-2.59,3.08-24.08,27.72-59.17,26.5-32-1.11-51-23-54-26.5a51.13,51.13,0,0,0,21.5-25,50.41,50.41,0,0,0,2.73-26.72h65.35c-.79,2.87-5.33,20.55,5.4,36.57a41.44,41.44,0,0,0,5.07,6.16A44,44,0,0,0,338,379.1Z" />
                <path class="cls-12"
                    d="M324.88,370.11a120.73,120.73,0,0,1-75.82-42.73h65.35c-.79,2.87-5.33,20.55,5.4,36.57A41.44,41.44,0,0,0,324.88,370.11Z" />
                <path class="cls-11"
                    d="M351,248.93l-1.26,6.16c-1,4.91-2.26,11-3.74,17.84-4,18.75-6,28.13-7,30.47-8.12,19.11-34.22,32.2-58.64,31.87-24.68-.34-48-14.41-57.23-32.62-2.73-5.41-4.36-11.41-6.42-19a173.73,173.73,0,0,1-5.29-29.51q-.25-2.78-.39-5.16a188.2,188.2,0,0,0,12.66-29.33c2.28-6.83,4-13.26,5.36-19.29.8-3.53,1.48-6.92,2.09-10.19,4.3-22.94,5.14-39.54,18.61-50.79,2.73-2.29,8.77-7.18,15.94-6.06,9.83,1.54,14.74,13.25,15.44,15,3.52-9.37,10.45-15.71,17.9-16.08,7-.34,12.21,4.67,15,7.41,11.4,11.22,12.84,27.05,13.33,31.67a165.38,165.38,0,0,0,3.59,20.49c.82,3.49,1.79,7.22,2.95,11.17A366.26,366.26,0,0,0,351,248.93Z" />
                <path class="cls-13"
                    d="M351,248.93l-1.26,6.16a163.55,163.55,0,0,1-10.61-20.19c-7.63-17.39-11.29-34-14.3-48.05-4.12-19.17-4.25-26.16-11-36-3.42-5-9.07-13.22-16.74-12.74-6.59.41-12.76,7.15-15.5,16.75-.57-1.21-6.82-14.2-17.75-14.75a17.64,17.64,0,0,0-10.75,3.5c-13.78,9.58-14.79,32.39-16.85,46.66C234,206,228.05,228,211.39,254.09l-.39-5.16a188.2,188.2,0,0,0,12.66-29.33c2.28-6.83,4-13.26,5.36-19.29.8-3.53,1.48-6.92,2.09-10.19,4.3-22.94,5.14-39.54,18.61-50.79,2.73-2.29,8.77-7.18,15.94-6.06,9.83,1.54,14.74,13.25,15.44,15,3.52-9.37,10.45-15.71,17.9-16.08,7-.34,12.21,4.67,15,7.41,11.4,11.22,12.84,27.05,13.33,31.67a165.38,165.38,0,0,0,3.59,20.49c.82,3.49,1.79,7.22,2.95,11.17A366.26,366.26,0,0,0,351,248.93Z" />
                <path class="cls-14"
                    d="M278.45,234.88,270.12,264a4,4,0,0,0,.72,3.58,13.15,13.15,0,0,0,10.78,5,13.39,13.39,0,0,0,9.71-5,3.94,3.94,0,0,0,.74-3.66q-4.31-14.49-8.62-29a2.62,2.62,0,0,0-2-2.5A2.69,2.69,0,0,0,278.45,234.88Z" />
                <path class="cls-15"
                    d="M265.46,197.47a3.46,3.46,0,0,1-4.09,1.47,29.69,29.69,0,0,0-18.91-4A29.32,29.32,0,0,0,229,200.31c.8-3.53,1.48-6.92,2.09-10.19A31.34,31.34,0,0,1,241.83,187a32.79,32.79,0,0,1,22.25,5.86A3.49,3.49,0,0,1,265.46,197.47Z" />
                <path class="cls-15"
                    d="M333.87,202.93a29.37,29.37,0,0,0-34.42-3,3.44,3.44,0,0,1-4.09-1.47,3.48,3.48,0,0,1,1.38-4.64A32.79,32.79,0,0,1,319,188a31.51,31.51,0,0,1,11.93,3.79C331.74,195.25,332.71,199,333.87,202.93Z" />
                <path class="cls-16"
                    d="M224.83,222.94c3.86-9.7,14.11-14.82,23.17-12.34,7.47,2.06,13.08,9,13.83,17.34-.51-1.2-4.39-10-14-12.67C239.65,213,230.59,216,224.83,222.94Z" />
                <path class="cls-16"
                    d="M338,222.94c-3.86-9.7-14.12-14.82-23.17-12.34-7.47,2.06-13.08,9-13.83,17.34.5-1.2,4.39-10,14-12.67C323.18,213,332.24,216,338,222.94Z" />
                <ellipse class="cls-17" cx="244.95" cy="231.16" rx="7.63" ry="11.2" />
                <path class="cls-6" d="M249.06,226.32a1.56,1.56,0,1,1-1.55-1.55A1.56,1.56,0,0,1,249.06,226.32Z" />
                <ellipse class="cls-17" cx="317.25" cy="231.16" rx="7.63" ry="11.2" />
                <path class="cls-6" d="M321.36,226.32a1.56,1.56,0,1,1-1.55-1.55A1.56,1.56,0,0,1,321.36,226.32Z" />
                <path class="cls-14"
                    d="M253.16,280.44c-.42.66,12.27,15.82,29.67,15.16,16.14-.6,27.2-14.46,26.83-15s-10.34,10.6-25.5,11.5C266.57,293.15,253.58,279.79,253.16,280.44Z" />
            </g>
        </g>
    </g>
</svg>