<svg xmlns="http://www.w3.org/2000/svg" xmlns:xlink="http://www.w3.org/1999/xlink" viewBox="0 0 570 573.84">
    <defs>
        <style>
            .cls-1 {
                fill: #efd7c7;
            }

            .cls-2 {
                clip-path: url(#clip-path);
            }

            .cls-3,
            .cls-6 {
                fill: #513232;
            }

            .cls-4 {
                fill: #110808;
            }

            .cls-5 {
                fill: #704a4a;
            }

            .cls-6 {
                opacity: 0.7;
            }

            .cls-7 {
                fill: #3a2222;
            }

            .cls-8 {
                fill: #ea9466;
            }

            .cls-9 {
                fill: #b96d52;
            }

            .cls-10,
            .cls-11 {
                fill: #b76456;
            }

            .cls-10 {
                opacity: 0.64;
            }

            .cls-12 {
                fill: #3f1f1c;
            }

            .cls-13 {
                fill: #1e0f0f;
            }

            .cls-14 {
                fill: #fff;
            }
        </style>
        <clipPath id="clip-path">
            <circle class="cls-1" cx="285" cy="285" r="285" />
        </clipPath>
    </defs>
    <g id="Layer_2" data-name="Layer 2">
        <g id="OBEJCTS">
            <circle class="cls-1" cx="285" cy="285" r="285" />
            <g class="cls-2">
                <path class="cls-3"
                    d="M222.81,395.2A385.74,385.74,0,0,1,166.22,421c-21.32,7.65-35.11,10.36-46.2,24.21-5.2,6.5-8.74,14.13-13.33,24a216.63,216.63,0,0,0-11.33,30c19.44,17.66,76.46,64.74,163.33,73.33,117.8,11.66,200.23-56.39,215.33-69.33a266.08,266.08,0,0,0-12-33.33c-4.25-9.74-6.46-14.71-10.66-20-9.5-12-21.87-16.65-28.67-19.34-19.18-7.58-43.86-19.05-76.67-35.3Z" />
                <path class="cls-4"
                    d="M155,541a297.74,297.74,0,0,0-6.67-49.17,299.37,299.37,0,0,0-8-29,236.6,236.6,0,0,1,12.33,35.66,237.17,237.17,0,0,1,7.1,45Z" />
                <path class="cls-4" d="M416.32,541A296.92,296.92,0,0,1,431,462.84a236.41,236.41,0,0,0-19.43,80.64Z" />
                <path class="cls-5"
                    d="M246.47,340.34c-3.47-.28-10.12-.22-14.78,4.16-1,.92-3.87,3.91-5.73,16.62a112.63,112.63,0,0,0-1.08,16.7,92.66,92.66,0,0,1-5.52,29.52,121.22,121.22,0,0,0,20,9.16c46.89,16.52,91.79-.39,111-9.16a90.39,90.39,0,0,1-7.88-33.85c-.31-11.27,1.81-19-3.16-25.32-4.51-5.71-12.35-7.05-18-7.33Z" />
                <path class="cls-6"
                    d="M234.86,356.71c9.3,4.93,34.9,16.84,66.62,10.92a97.3,97.3,0,0,0,32-12.17,178,178,0,0,0-27-5.12A184.23,184.23,0,0,0,234.86,356.71Z" />
                <path class="cls-3"
                    d="M234.86,356.71c9.42,5,35.46,17,67.5,10.75a97.06,97.06,0,0,0,31.12-12,118.92,118.92,0,0,1-33.25,10C270.64,369.78,246.7,361.71,234.86,356.71Z" />
                <path class="cls-3"
                    d="M235.36,344.34l-10.67-16.5v13.5l-14.83-6.84L222.36,368,196,355.46q-5.33-22.81-10.66-45.62-.33,19.7-.67,39.4l-14-5.15a230.86,230.86,0,0,1-12.33-92.75,226.17,226.17,0,0,1,8.33-46.13,32.25,32.25,0,0,1-8.33-12.87c-10.9-32.69,40.07-77,71-97.17,12.67-8.25,77.36-48.46,107-24.83A33.93,33.93,0,0,1,346,83.17c16.91,3.49,29,13.94,30.19,25.67A21.73,21.73,0,0,1,374,120.5c4.84,3.86,30.52,25.07,28.76,54.24A48.8,48.8,0,0,1,400,188.17a302.85,302.85,0,0,1,0,153.17l-18.16,13q-.92-22.26-1.84-44.5l-8.66,45.62L351,364.54l4.5-25.35-12.65,3.65q1.74-8,3.5-16l-12.88,17.25Z" />
                <path class="cls-7"
                    d="M364.33,226.06a330.61,330.61,0,0,1-8.82,113.13l-12.65,3.65,3.5-16-12.88,17.25-98.12.25-10.67-16.5v13.5l-14.83-6.84a262.17,262.17,0,0,1-5.5-63.66q2.74-7.5,5.5-15Z" />
                <path class="cls-7"
                    d="M241.74,127.84a179,179,0,0,0-26.24,42.87,181.58,181.58,0,0,0-14.64,77.13,288.8,288.8,0,0,1,40.88-120Z" />
                <path class="cls-7" d="M346,83.17a92.11,92.11,0,0,1,12.34,33,87.56,87.56,0,0,0-8-31.91Z" />
                <path class="cls-7"
                    d="M247.1,187.38q14.1-14.13,28.18-28.29,11.55-11.61,23.09-23.25c-6.47,8.53-13.79,17.49-22,26.66-7.89,8.8-15.66,16.73-23.14,23.85Z" />
                <path class="cls-8" d="M320.86,327.84l-.26,32.5a91.58,91.58,0,0,1-73.5,0V328.81Z" />
                <path class="cls-9" d="M247.1,328.81a112.53,112.53,0,0,0,73.5,31.53q.13-16.26.26-32.5Z" />
                <path class="cls-8"
                    d="M363.86,242.34c-2.35,17-5.13,31.27-7.5,42-4.27,19.35-6.78,25.51-12,31-3.81,4-10.42,6.89-23.5,12.5-19.54,8.39-29.3,12.58-37.5,12.5-6.48-.06-14.66-3.21-31-9.5-17-6.54-25.56-9.91-29.5-15-4.44-5.74-4.15-10-8-33-1.55-9.3-3-17.15-4.18-22.92-.3-1.5-.57-2.87-.82-4.08a177.47,177.47,0,0,1,17.55-41.2h0v0h0c.23-.4.47-.79.71-1.2.35-.58.7-1.17,1.06-1.75a176.55,176.55,0,0,1,12.54-17.88c1.57-2,3.14-3.85,4.67-5.61l.69-.79a154.6,154.6,0,0,0,58.26-21,153.36,153.36,0,0,0,33.25-27.5,170.58,170.58,0,0,1,25.66,85.95C364.44,231.39,364.23,237.29,363.86,242.34Z" />
                <path class="cls-10"
                    d="M364.27,224.79v9.05a254.07,254.07,0,0,0-11.91-55.25,252.32,252.32,0,0,0-13.25-32c-12.47,13.37-35.87,34-70,41a118.19,118.19,0,0,1-17.85,2.25,207.7,207.7,0,0,0-16.5,21.52,211.53,211.53,0,0,0-24.08,48.56c-.3-1.5-.57-2.87-.82-4.08a176.46,176.46,0,0,1,37.24-68.46,154.6,154.6,0,0,0,58.26-21,153.36,153.36,0,0,0,33.25-27.5,170.58,170.58,0,0,1,25.66,85.95Z" />
                <path class="cls-11"
                    d="M281.91,235.44,270.47,277a3,3,0,0,0,.58,2.82c2.17,2.25,6.86,6.23,13.38,6.21s11.06-3.91,13.24-6.16a3,3,0,0,0,.56-2.92q-6.48-20.79-13-41.58C284.64,233.29,282.49,233.35,281.91,235.44Z" />
                <path class="cls-12"
                    d="M307.36,204.18c-1.6,1.1-3.45,1.34-4.4.6-1.25-1-1.41-4,.9-6.28,1.75-1.75,13.89-13.57,28.25-10.66,11.54,2.33,18.89,13,18.25,13.83s-8-7.48-18.75-8.21C321.54,192.78,312.93,199,307.36,204.18Z" />
                <path class="cls-12"
                    d="M307.11,221.34c4.31-8.85,12.82-14.06,21.08-13.17a19.8,19.8,0,0,1,12.11,6.46l-.61.71a23.09,23.09,0,0,0-11.83-4.17C315.78,210.51,308,220.25,307.11,221.34Z" />
                <path class="cls-12" d="M338.61,214.21,346,208l-6.33,7.35Z" />
                <ellipse class="cls-13" cx="320.6" cy="229.17" rx="6.58" ry="9.33" />
                <path class="cls-14" d="M323.7,224.82a1.24,1.24,0,1,1-1.23-1.23A1.24,1.24,0,0,1,323.7,224.82Z" />
                <path class="cls-12"
                    d="M264.75,204.78c-1,.75-2.81.5-4.4-.6-4.5-4.19-11-9-18.61-10.4,1.57-2,3.14-3.85,4.67-5.61,9.27,2.33,16.15,9.05,17.44,10.34C266.16,200.82,266,203.81,264.75,204.78Z" />
                <path class="cls-12"
                    d="M260.6,221.34c-.85-1.09-8.67-10.83-20.75-10.17A23.18,23.18,0,0,0,228,215.34c-.21-.23-.41-.47-.61-.7l0,0h0c.25-.27.57-.61,1-1a19.2,19.2,0,0,1,11.12-5.46C247.77,207.28,256.29,212.5,260.6,221.34Z" />
                <path class="cls-12" d="M229.1,214.21,228,215.34l-.6-.7h0l0,0h0c.23-.4.47-.79.71-1.2l.26.22Z" />
                <ellipse class="cls-13" cx="247.1" cy="229.17" rx="6.58" ry="9.33" />
                <path class="cls-14" d="M244,224.82a1.24,1.24,0,1,0,2.47,0,1.24,1.24,0,0,0-2.47,0Z" />
                <path class="cls-11"
                    d="M300.77,294.84c7.34-4,12.08-11.37,11.71-11.75s-5.07,5.57-12.12,9.12c-17.39,8.75-38.1-2.41-38.25-1.87S284.09,303.88,300.77,294.84Z" />
            </g>
        </g>
    </g>
</svg>