<svg xmlns="http://www.w3.org/2000/svg" xmlns:xlink="http://www.w3.org/1999/xlink" viewBox="0 0 570 575.24">
    <defs>
        <style>
            .cls-1 {
                fill: none;
            }

            .cls-2 {
                fill: #efd7c7;
            }

            .cls-3 {
                clip-path: url(#clip-path);
            }

            .cls-4 {
                fill: #513232;
            }

            .cls-5 {
                fill: #a37f79;
            }

            .cls-6 {
                fill: #fff;
            }

            .cls-7 {
                fill: #110808;
            }

            .cls-8 {
                fill: #ea9466;
            }

            .cls-9 {
                fill: #b96d52;
            }

            .cls-10,
            .cls-11,
            .cls-14 {
                fill: #b76456;
            }

            .cls-10 {
                opacity: 0.57;
            }

            .cls-12 {
                fill: #3f1f1c;
            }

            .cls-13 {
                fill: #1e0f0f;
            }

            .cls-14 {
                opacity: 0.64;
            }
        </style>
        <clipPath id="clip-path" transform="translate(-1)">
            <circle class="cls-1" cx="285" cy="285" r="285" />
        </clipPath>
    </defs>
    <g id="Layer_2" data-name="Layer 2">
        <g id="OBEJCTS">
            <circle class="cls-2" cx="285" cy="285" r="285" />
            <g class="cls-3">
                <path class="cls-4"
                    d="M385.33,352.71l109.6,65.11a25.05,25.05,0,0,1,10.55,12.4l9.85,25c-9.5,12.78-86.35,112.54-222,117-147.15,4.84-233.37-106.76-241-117l14.78-30.38a25.14,25.14,0,0,1,9.51-10.46l106.71-65.16Z"
                    transform="translate(-1)" />
                <path class="cls-5"
                    d="M230.4,325l-47.07,24.2a100.88,100.88,0,0,0,19,55,99.81,99.81,0,0,0,35.27,30q-5.47-19.5-10.94-39H345.19l-10.52,39c10.2-6.89,29.7-22.24,41.66-49a113.5,113.5,0,0,0,9-32.5l-41.95-25.07Z"
                    transform="translate(-1)" />
                <path class="cls-6"
                    d="M226.66,395.21H345.19l-10.52,39L322,437.88c3.5,24.44,6.31,50.72,8,78.66,1.08,17.93,1.62,35.2,1.72,51.75a164,164,0,0,1-93.83.18q4.05-65.62,8.11-131.26l-8.4-3Z"
                    transform="translate(-1)" />
                <path class="cls-7"
                    d="M498.54,420.46a302.4,302.4,0,0,0-44.68,94.41l-2.76,2a278.27,278.27,0,0,1,44.43-98.69Z"
                    transform="translate(-1)" />
                <path class="cls-7"
                    d="M69.14,420.46a303,303,0,0,1,23.77,39.75,303.14,303.14,0,0,1,20.91,54.66l2.76,2A278.59,278.59,0,0,0,92,450.52a275.86,275.86,0,0,0-20.42-33.06Z"
                    transform="translate(-1)" />
                <path class="cls-8"
                    d="M350,367.21q-2.42,14-4.81,28a141.61,141.61,0,0,1-31.53,10c-38.56,7.4-70.82-3.22-87-10q-2.32-13.83-4.66-27.67a248,248,0,0,0,9.35-53.71,244.35,244.35,0,0,0,.06-29.63q-.16-3.06-.41-6l79.41-.49,29.25-.18c0,.88,0,1.77.07,2.66s0,1.58.08,2.38c.4,12.28,1.29,25.34,2.86,39.09q.7,6.27,1.6,12.74,1.41,10,3.11,19.38Q348.63,360.66,350,367.21Z"
                    transform="translate(-1)" />
                <path class="cls-9"
                    d="M343.38,327.64c-4.47,2.18-13.68,3.31-28.06,3.31h0c-.06,0-46.14,2.37-83.91-46.76-2.62-3.41-5.21-7.14-5.21-7.14-1.71-2.47-3.22-4.76-4.54-6.85l88.75,7.51,29.32,2.48c0,.79,0,1.59.08,2.38C340.36,298,341.58,313,343.38,327.64Z"
                    transform="translate(-1)" />
                <path class="cls-4"
                    d="M199.83,186.71l-17.19-30.6a18,18,0,0,1,.07-17.76l8.08-14.14c-1.91.49-4.54,1.12-7.71,1.75-6.54,1.31-7.18,1-7.5.75-2.72-2.13,1.93-12.95,5-18.5,4.34-7.86,15-22.46,43.21-33-3-.67-7.5-1.6-13-2.5-15.26-2.51-19.37-1.69-20-3.5-1.58-4.55,20.9-20,47-26.25a115.78,115.78,0,0,1,46.75-1.25,42.44,42.44,0,0,1-6-10.5C276.91,27,276,24.69,276.83,23c2.7-5.7,22.25-1.57,23.75-1.25,9.68,2.11,27.48,8.2,46.46,29.5q3.31-16,5.6-15.88,2.92.18,4.17,26.88c20.47,4.16,25.48,7,25.37,9,0,.9-1.81,2-5.35,4a86.94,86.94,0,0,1-10,5q26.35,13.83,25,17.5-.87,2.37-13.25.5c4.26,3.92,11.14,11.49,13.25,22.5.48,2.53,1.83,11-7,32.84a190.21,190.21,0,0,1-18.45,34.54Z"
                    transform="translate(-1)" />
                <path class="cls-8"
                    d="M366.34,188.09c2.23-1.5,8.39-5.15,14.81-3.36,9.83,2.76,13.19,16.34,13.21,23.63,0,15.49-15,30.79-37.55,38.4Q361.57,217.42,366.34,188.09Z"
                    transform="translate(-1)" />
                <path class="cls-10"
                    d="M382.63,200a5.33,5.33,0,0,0-4-1.46c-8,.91-10.61,27.47-11,31.85,1.63-.91,13.1-7.43,16.51-16.59a14.48,14.48,0,0,0,.94-8.87A12.84,12.84,0,0,0,382.63,200Z"
                    transform="translate(-1)" />
                <path class="cls-11"
                    d="M378,197.21c-5.33.08-8.93,12.4-9.51,14.48-2.75,9.84-1.42,18.63-.84,18.65s.51-7.07,3.72-17.92c3-10.2,5.63-12.75,7.89-13,1.64-.18,3.23.82,3.37.53S380.38,197.17,378,197.21Z"
                    transform="translate(-1)" />
                <path class="cls-11"
                    d="M377.54,212.26c2.68,4.74-.25,10.86-.69,10.79s1.82-6-1.29-9.67c-1.75-2.1-4.79-3-4.6-4.64a1.33,1.33,0,0,1,.54-.94C372.74,207.09,376,209.55,377.54,212.26Z"
                    transform="translate(-1)" />
                <path class="cls-8"
                    d="M206,188.2c-2.21-1.52-8.31-5.28-14.76-3.59-9.87,2.6-13.45,16.13-13.58,23.41-.29,15.49,14.46,31,36.93,39Q210.28,217.61,206,188.2Z"
                    transform="translate(-1)" />
                <path class="cls-10"
                    d="M190.8,199.91a5.43,5.43,0,0,1,4-1.4c8,1,10.17,27.65,10.51,32-1.62-.94-13-7.65-16.24-16.86a14.48,14.48,0,0,1-.8-8.88A12.84,12.84,0,0,1,190.8,199.91Z"
                    transform="translate(-1)" />
                <path class="cls-11"
                    d="M195.47,197.25c5.33.17,8.73,12.54,9.28,14.63,2.59,9.88,1.12,18.66.54,18.67s-.4-7.09-3.43-18c-2.85-10.25-5.43-12.84-7.68-13.13-1.64-.21-3.25.77-3.38.47S193.1,197.17,195.47,197.25Z"
                    transform="translate(-1)" />
                <path class="cls-11"
                    d="M195.69,212.31c-2.75,4.69.08,10.86.52,10.8s-1.72-6,1.44-9.66c1.79-2.06,4.84-2.87,4.67-4.56a1.28,1.28,0,0,0-.52-.95C200.57,207.21,197.27,209.62,195.69,212.31Z"
                    transform="translate(-1)" />
                <path class="cls-8"
                    d="M371.08,157.21q-2.37,15.22-4.75,30.46-6.25,40.1-12.5,80.18a16.12,16.12,0,0,1-5.94,10.2,100.93,100.93,0,0,1-53.23,21.49c-34.67,3.11-60.54-13.27-71.48-21.71a16.16,16.16,0,0,1-6-9.85q-4.09-22.28-7.83-45.49-2.9-18.12-5.38-35.78v-.07q-2.22-15.66-4.12-30.93a80.32,80.32,0,0,1,27.5-35.5,78.45,78.45,0,0,1,25.5-12l-7.21,8.72q-9.52,11.52-19,23a99.75,99.75,0,0,0,61-27h0a104.35,104.35,0,0,0,11.8-13.2,165,165,0,0,1-21.51,34.5,76.29,76.29,0,0,0,52.26-25.77c1.89-2.14,3.4-4.1,4.58-5.73a127.36,127.36,0,0,1,15.66,16.5A129.19,129.19,0,0,1,371.08,157.21Z"
                    transform="translate(-1)" />
                <path class="cls-12"
                    d="M265.78,166.51a3.94,3.94,0,0,1,1.25,1,4.45,4.45,0,0,1,.55,4.77,4,4,0,0,1-.54.84,4.32,4.32,0,0,1-5.57.78,38.26,38.26,0,0,0-16.05-5.68c-11.72-1.25-21,3.79-21.59,2.35-.51-1.14,4.81-5.52,11-7.79C247.47,158.19,260.07,163.55,265.78,166.51Z"
                    transform="translate(-1)" />
                <path class="cls-12"
                    d="M305.05,166.51a3.94,3.94,0,0,0-1.25,1,4.45,4.45,0,0,0-.55,4.77,4,4,0,0,0,.54.84,4.32,4.32,0,0,0,5.57.78,38.26,38.26,0,0,1,16.05-5.68c11.72-1.25,21,3.79,21.59,2.35.51-1.14-4.81-5.52-11.05-7.79C323.36,158.19,310.76,163.55,305.05,166.51Z"
                    transform="translate(-1)" />
                <path class="cls-12"
                    d="M247,175.21c8.66-2.9,17.95,4.59,17.66,5.33s-8-4.29-16.83-1.66c-6.4,1.9-9.66,6.67-10.17,6.16S240.51,177.38,247,175.21Z"
                    transform="translate(-1)" />
                <path class="cls-12"
                    d="M325.27,175.21c-8.67-2.9-17.95,4.59-17.66,5.33s8-4.29,16.83-1.66c6.4,1.9,9.66,6.67,10.17,6.16S331.76,177.38,325.27,175.21Z"
                    transform="translate(-1)" />
                <ellipse class="cls-13" cx="253.33" cy="191.96" rx="6.67" ry="10.58" />
                <path class="cls-6" d="M256,188.29a1.59,1.59,0,1,1-1.59-1.58A1.59,1.59,0,0,1,256,188.29Z"
                    transform="translate(-1)" />
                <ellipse class="cls-13" cx="315.33" cy="191.96" rx="6.67" ry="10.58" />
                <path class="cls-6" d="M317.91,188.29a1.58,1.58,0,1,1-1.58-1.58A1.59,1.59,0,0,1,317.91,188.29Z"
                    transform="translate(-1)" />
                <path class="cls-11"
                    d="M282.88,198.22l-11.44,30.52a1.81,1.81,0,0,0,.58,2.08,21.76,21.76,0,0,0,26.62,0,1.81,1.81,0,0,0,.56-2.14l-12.95-30.56A1.82,1.82,0,0,0,282.88,198.22Z"
                    transform="translate(-1)" />
                <path class="cls-11"
                    d="M319.7,227.34a3.19,3.19,0,1,1,5.22,3.62,51.91,51.91,0,0,1-20.59,16c-20.24,8.45-40.47.38-40.38-.5s22.14,6,41.25-5.37A47.19,47.19,0,0,0,319.7,227.34Z"
                    transform="translate(-1)" />
                <path class="cls-14"
                    d="M227.33,120.21a78.45,78.45,0,0,1,25.5-12l-7.21,8.72a70.58,70.58,0,0,0-14.79,7.53,74.25,74.25,0,0,0-26.25,31.75q-.32,15.25-.62,30.5v-.07q-2.22-15.66-4.12-30.93A80.32,80.32,0,0,1,227.33,120.21Z"
                    transform="translate(-1)" />
                <path class="cls-14"
                    d="M299.34,99.71a165,165,0,0,1-21.51,34.5,73.09,73.09,0,0,0,7-13.25,71.86,71.86,0,0,0,2.71-8h0A104.35,104.35,0,0,0,299.34,99.71Z"
                    transform="translate(-1)" />
                <path class="cls-14"
                    d="M371.08,157.21q-2.37,15.22-4.75,30.46-.39-15.46-.75-31a125.87,125.87,0,0,0-35.49-48.27c1.89-2.14,3.4-4.1,4.58-5.73a127.36,127.36,0,0,1,15.66,16.5A129.19,129.19,0,0,1,371.08,157.21Z"
                    transform="translate(-1)" />
            </g>
        </g>
    </g>
</svg>