<svg xmlns="http://www.w3.org/2000/svg" xmlns:xlink="http://www.w3.org/1999/xlink" viewBox="0 0 570 571.83">
    <defs>
        <style>
            .cls-1 {
                fill: #f4c5a2;
            }

            .cls-2 {
                clip-path: url(#clip-path);
            }

            .cls-3 {
                fill: #ef7443;
            }

            .cls-4,
            .cls-7,
            .cls-8 {
                fill: #c44d23;
            }

            .cls-4 {
                opacity: 0.69;
            }

            .cls-5 {
                fill: #9e3207;
            }

            .cls-6 {
                fill: #af411e;
            }

            .cls-7 {
                opacity: 0.65;
            }

            .cls-9 {
                fill: #391b1b;
            }

            .cls-10 {
                fill: #ae5552;
            }

            .cls-11 {
                fill: #753735;
            }

            .cls-12 {
                fill: #2c1515;
            }

            .cls-13 {
                fill: #fff;
            }

            .cls-14,
            .cls-15,
            .cls-16 {
                fill: #7c2f2f;
            }

            .cls-14 {
                opacity: 0.47;
            }

            .cls-16 {
                opacity: 0.6;
            }
        </style>
        <clipPath id="clip-path">
            <circle class="cls-1" cx="285" cy="285" r="285" />
        </clipPath>
    </defs>
    <g id="Layer_2" data-name="Layer 2">
        <g id="OBEJCTS">
            <circle class="cls-1" cx="285" cy="285" r="285" />
            <g class="cls-2">
                <path class="cls-3"
                    d="M405.74,410.84A131.5,131.5,0,0,1,484,494.21c-15,13.58-96.92,85-218,77-96.85-6.39-160.07-59.72-179-77a112.55,112.55,0,0,1,76.45-84.39Z" />
                <path class="cls-4"
                    d="M159.34,411.21a74.61,74.61,0,0,0,21.32,19c19.24,11.29,39.75,11.1,51,11,11.84-.11,11.89-1.77,21.94-1.08,18.22,1.24,20.14,6.86,33.4,6.41,12.36-.41,13.55-5.39,31-8a105.67,105.67,0,0,1,24-.66c13.8.69,35.83-3.18,71.69-23.67l-7.95-3.37Z" />
                <path class="cls-5" d="M235.5,434.73q-2.59,50.75-5.17,101.48l6,1q2.52-51.51,5-103Z" />
                <path class="cls-5" d="M336.54,432.73l5.17,101.48-6,1-5-103Z" />
                <path class="cls-3"
                    d="M232.18,316.45a66.57,66.57,0,0,0-56.68,51.76c-19.83,7.2-22.47,16.3-23,19C149.06,404.5,179,424.4,202,431.71c21.89,7,41.45,3.76,51.94,1.17a83.37,83.37,0,0,0,64,0A126,126,0,0,0,373,426.71c6.33-2.23,47.4-16.68,46-35.5-.84-11.24-16.46-19-24.5-22.33a84.5,84.5,0,0,0-55.57-50.76Z" />
                <path class="cls-6"
                    d="M336.5,390.71l20.83-16.61c-7.94-13.65-10.13-17-10.33-16.89s1.81,3.92,4.62,11c.9,2.27,1.61,4.2,2.13,5.63L336.5,387.21Z" />
                <path class="cls-6"
                    d="M235.5,392.21l-20.17-16.78c7.94-13.65,10.13-17,10.33-16.89s-1.81,3.93-4.62,11c-.9,2.27-1.61,4.2-2.13,5.63l17.62,13C236.19,389.51,235.84,390.86,235.5,392.21Z" />
                <path class="cls-7"
                    d="M225.66,358.54a171,171,0,0,1,45.67-11A173.42,173.42,0,0,1,347,357.21l6.75,16.63-19.75,14-97.47.28-17.62-13Z" />
                <path class="cls-8"
                    d="M175.5,368.21a102.91,102.91,0,0,0,21.83,28.67c21.72,19.81,46,23.87,45.83,24.33s-27.9-3-51-24.83a94.33,94.33,0,0,1-19.75-27Z" />
                <path class="cls-8"
                    d="M394.33,368.88a103,103,0,0,1-21.82,28.66c-21.73,19.82-46,23.88-45.84,24.34s27.9-3,51-24.84a94.23,94.23,0,0,0,19.76-27Z" />
                <path class="cls-5" d="M240.4,535.28a6.74,6.74,0,1,1-6.74-6.74A6.74,6.74,0,0,1,240.4,535.28Z" />
                <path class="cls-5" d="M345.4,535.28a6.74,6.74,0,1,1-6.74-6.74A6.74,6.74,0,0,1,345.4,535.28Z" />
                <path class="cls-8"
                    d="M138.18,531.69a168.24,168.24,0,0,0-10.52-39,167.34,167.34,0,0,0-12.33-24.5,127.18,127.18,0,0,1,17,27.67,127.86,127.86,0,0,1,10.46,38.44Z" />
                <path class="cls-8" d="M432.05,531.69a167.6,167.6,0,0,1,22.85-63.48,127.2,127.2,0,0,0-27.46,66.11Z" />
                <path class="cls-9"
                    d="M204.33,228.54c.18-6.23-.62-15-6.16-22.3-7.27-9.57-17.49-9.76-19.9-17.53-1.17-3.76-.7-9.93,8-20-.54-.3-10.64-6.05-10.79-15-.16-9.15,10.14-19.14,24.66-18.5-6.14-5.55-9.75-13.26-8.17-20,2.4-10.27,16.88-18.55,33-13.5-4.4-7.89-3.65-16.94,1-21.5,6.16-6,20.2-5.18,27.94,6-.39-2.39-1.32-9.95,3.06-14.5,5.89-6.13,20.23-5.57,32,5.5,8.36-9.14,19.88-10.33,25.5-5.5,4.35,3.74,4.25,10.31,4.18,12,7.34-7.66,19-8.08,25.82-2,5.47,4.86,7.25,13.3,4.16,20.83,15-2.65,28.18,5,31.34,15.67,2.73,9.25-3,17.82-4,19.33,10.66,1.48,18.2,9.29,18.49,17.55.24,7-4.86,12.06-6,13.12,3,5.12,6.27,12.67,3.5,19-3.17,7.21-11.63,7-17.34,14-3.58,4.42-6.75,12.52-3,28.67l-94.41,22.54Z" />
                <path class="cls-10"
                    d="M241.36,330.8a185.82,185.82,0,0,1-5.86,61.41l50.83,28.5,50.17-30a281.86,281.86,0,0,1-2.86-63.22Z" />
                <path class="cls-11"
                    d="M241.36,330.8c2.69,3.89,6.65,9.63,11.54,16.61,5.07,7.24,6,8.47,7.1,9.8a62.35,62.35,0,0,0,21,15c23.38,10.16,50.49-1.24,53-2.33q-.51-24.67-1-49.34Z" />
                <path class="cls-10"
                    d="M357.33,230.73l-7,71.34a11.42,11.42,0,0,1-2.17,5.66L320,346.11a9.71,9.71,0,0,1-5.48,3.68,120.33,120.33,0,0,1-57.73.09,9.65,9.65,0,0,1-5.85-4.19l-27.42-42.82a11.39,11.39,0,0,1-1.75-5.08q-3.21-33.53-6.41-67.06c.74-2.07,1.49-4.28,2.22-6.62a164.68,164.68,0,0,0,6.23-28.72,166.32,166.32,0,0,0,.89-31.85,430.81,430.81,0,0,0,64.66,4.34,429.79,429.79,0,0,0,57.34-4.34,152.65,152.65,0,0,0,9,62.78C356.2,227.86,356.77,229.33,357.33,230.73Z" />
                <ellipse class="cls-12" cx="259.09" cy="248.47" rx="6.15" ry="8.25" />
                <path class="cls-13" d="M261.65,244.85a1.08,1.08,0,1,1-1.08-1.08A1.08,1.08,0,0,1,261.65,244.85Z" />
                <path class="cls-10"
                    d="M216.25,226.59c-2.17-1.67-8.17-5.82-14.81-4.44-10.19,2.12-14.55,15.69-15.07,23.08-1.12,15.74,13,32.33,35.47,41.64Q219.05,256.73,216.25,226.59Z" />
                <path class="cls-14"
                    d="M200.17,237.69a5.48,5.48,0,0,1,4.13-1.21c8,1.48,8.87,28.65,9,33.14-1.6-1-12.8-8.47-15.62-18a14.71,14.71,0,0,1-.33-9.08A13,13,0,0,1,200.17,237.69Z" />
                <path class="cls-15"
                    d="M205.07,235.23c5.41.46,8.21,13.22,8.66,15.37,2.1,10.19.14,19-.45,19s0-7.23-2.53-18.47c-2.36-10.57-4.84-13.35-7.12-13.76-1.64-.3-3.34.61-3.46.3S202.66,235,205.07,235.23Z" />
                <path class="cls-15"
                    d="M204.49,250.56c-3.05,4.62-.5,11-.05,11s-1.43-6.2,2-9.74c1.93-2,5.07-2.67,5-4.39a1.37,1.37,0,0,0-.48-1C209.73,245.63,206.23,247.91,204.49,250.56Z" />
                <path class="cls-10"
                    d="M355.8,226.59c2.17-1.67,8.17-5.82,14.82-4.44,10.18,2.12,14.54,15.69,15.07,23.08,1.12,15.74-13.05,32.33-35.48,41.64Q353,256.73,355.8,226.59Z" />
                <path class="cls-14"
                    d="M371.88,237.69a5.45,5.45,0,0,0-4.12-1.21c-8.05,1.48-8.88,28.65-9,33.14,1.6-1,12.8-8.47,15.62-18a14.77,14.77,0,0,0,.34-9.08A13.14,13.14,0,0,0,371.88,237.69Z" />
                <path class="cls-15"
                    d="M367,235.23c-5.41.46-8.21,13.22-8.65,15.37-2.1,10.19-.14,19,.44,19s0-7.23,2.54-18.47c2.35-10.57,4.83-13.35,7.11-13.76,1.65-.3,3.34.61,3.46.3S369.39,235,367,235.23Z" />
                <path class="cls-15"
                    d="M367.57,250.56c3,4.62.49,11,0,11s1.44-6.2-2-9.74c-1.93-2-5.07-2.67-5-4.39a1.33,1.33,0,0,1,.48-1C362.33,245.63,365.82,247.91,367.57,250.56Z" />
                <path class="cls-12"
                    d="M234,216.54c-2.38,2.45-2.3,6-.5,7.67a5,5,0,0,0,5,.83,23.79,23.79,0,0,1,28.5-3.16,4.24,4.24,0,0,0,4.5-.17c1.58-1.32,1.74-4.51-.52-6.65a25,25,0,0,0-14-7.35C244,205.75,234.78,215.67,234,216.54Z" />
                <path class="cls-12"
                    d="M337.11,216.54c2.37,2.45,2.3,6,.5,7.67a5,5,0,0,1-5,.83,23.79,23.79,0,0,0-28.5-3.16,4.24,4.24,0,0,1-4.5-.17c-1.58-1.32-1.74-4.51.51-6.65a25,25,0,0,1,14-7.35C327.13,205.75,336.32,215.67,337.11,216.54Z" />
                <path class="cls-12"
                    d="M269.62,236.46c.36-.92-4.46-4.59-10.35-5.49a18.52,18.52,0,0,0-13.15,2.74c-8,5.41-7.89,15.25-7.87,16,3.52-6.24,8.82-12.91,16.5-14.5C262.24,233.66,269.2,237.54,269.62,236.46Z" />
                <path class="cls-12"
                    d="M302.26,236.46c-.36-.92,4.47-4.59,10.36-5.49a18.5,18.5,0,0,1,13.14,2.74c8,5.41,7.9,15.25,7.88,16-3.53-6.24-8.83-12.91-16.5-14.5C309.64,233.66,302.68,237.54,302.26,236.46Z" />
                <ellipse class="cls-12" cx="312.53" cy="248.47" rx="6.15" ry="8.25" />
                <path class="cls-13" d="M315.82,244.85a1.08,1.08,0,1,1-1.07-1.08A1.07,1.07,0,0,1,315.82,244.85Z" />
                <path class="cls-15"
                    d="M277.5,272a3.59,3.59,0,0,1,.72-.17,64,64,0,0,1,8.61-.48,66,66,0,0,1,7.94.57,3.37,3.37,0,0,1,1.4.53,15.78,15.78,0,0,1,6.74,10,3.42,3.42,0,0,1-2,3.86,36.86,36.86,0,0,1-29.87-.26,3.42,3.42,0,0,1-2-3.52,12.56,12.56,0,0,1,2.44-6.15A12.78,12.78,0,0,1,277.5,272Z" />
                <path class="cls-15"
                    d="M319.49,284.15a3.24,3.24,0,0,1,4.51-.44,3.13,3.13,0,0,1,.62,3.38,48.45,48.45,0,0,1-16.5,13.37c-21.73,10.57-45.08.28-45-.57s26.94,8.31,46.43-5.52A40,40,0,0,0,319.49,284.15Z" />
                <path class="cls-15"
                    d="M277.25,314a47.47,47.47,0,0,0,27.56-.61,1.62,1.62,0,0,1,1.5.92,1.74,1.74,0,0,1-1.44,2.07A35.14,35.14,0,0,1,277.25,314Z" />
                <path class="cls-16"
                    d="M355.64,226.32a88.79,88.79,0,0,1-13.4-37.49,86.44,86.44,0,0,1,0-19.62,316,316,0,0,1-70.25,5,315.7,315.7,0,0,1-41.67-4.5A116.44,116.44,0,0,1,229.25,187a117.66,117.66,0,0,1-11.7,37.15,164.68,164.68,0,0,0,6.23-28.72,166.32,166.32,0,0,0,.89-31.85,430.81,430.81,0,0,0,64.66,4.34,429.79,429.79,0,0,0,57.34-4.34,152.65,152.65,0,0,0,9,62.78Z" />
            </g>
        </g>
    </g>
</svg>